<svg xmlns="http://www.w3.org/2000/svg" viewBox="0 0 954 1118" role="img" aria-label="Michal Kogalovski logo">
  <circle cx="473.5" cy="548.0" r="347.5" fill="#EB9DB3"/>
  <path d="M 455,654 L 452,657 L 449,662 L 449,664 L 448,665 L 448,671 L 449,672 L 449,674 L 452,679 L 456,683 L 458,683 L 461,685 L 464,685 L 465,686 L 472,685 L 479,681 L 482,674 L 480,675 L 480,676 L 478,678 L 472,681 L 469,681 L 468,682 L 459,679 L 455,675 L 453,671 L 453,661 L 455,659 L 456,656 L 460,653 L 460,652 Z M 741,564 L 740,563 L 738,563 L 737,564 L 737,587 L 736,588 L 736,597 L 735,598 L 734,610 L 733,611 L 733,615 L 732,616 L 732,621 L 730,624 L 730,629 L 728,633 L 728,636 L 726,640 L 726,643 L 723,649 L 723,652 L 720,658 L 719,663 L 708,685 L 708,687 L 705,691 L 699,703 L 696,706 L 695,709 L 692,712 L 691,715 L 688,718 L 686,722 L 682,726 L 682,727 L 680,728 L 678,732 L 676,733 L 676,734 L 672,738 L 672,739 L 649,762 L 648,762 L 647,764 L 646,764 L 642,768 L 641,768 L 636,773 L 635,773 L 622,784 L 620,784 L 619,786 L 616,787 L 613,790 L 612,790 L 607,794 L 604,795 L 602,797 L 599,798 L 594,802 L 592,802 L 590,804 L 579,809 L 577,811 L 569,815 L 567,815 L 557,820 L 552,821 L 547,824 L 544,824 L 542,826 L 540,826 L 539,827 L 537,827 L 536,828 L 534,828 L 533,829 L 531,829 L 524,832 L 520,832 L 517,834 L 514,834 L 513,835 L 510,835 L 509,836 L 506,836 L 505,837 L 502,837 L 501,838 L 496,838 L 495,839 L 492,839 L 491,840 L 479,841 L 478,842 L 456,842 L 447,837 L 445,837 L 441,834 L 439,834 L 437,832 L 434,832 L 422,826 L 420,826 L 419,825 L 417,825 L 416,824 L 414,824 L 413,823 L 411,823 L 410,822 L 408,822 L 401,819 L 398,819 L 391,816 L 388,816 L 387,815 L 384,815 L 383,814 L 380,814 L 379,813 L 376,813 L 375,812 L 372,812 L 371,811 L 368,811 L 367,810 L 363,810 L 359,808 L 347,807 L 346,806 L 341,806 L 340,805 L 336,805 L 335,804 L 313,803 L 312,802 L 292,802 L 291,801 L 283,801 L 280,798 L 280,797 L 281,796 L 282,792 L 289,786 L 291,786 L 292,785 L 296,785 L 297,784 L 301,784 L 302,783 L 311,783 L 312,782 L 321,782 L 322,781 L 338,781 L 339,780 L 363,780 L 364,779 L 391,779 L 392,780 L 409,780 L 412,783 L 414,783 L 421,786 L 443,787 L 444,786 L 464,785 L 465,784 L 479,783 L 480,782 L 485,782 L 486,781 L 492,781 L 493,780 L 498,780 L 499,779 L 511,778 L 512,776 L 511,774 L 505,774 L 504,775 L 500,775 L 499,776 L 493,776 L 492,777 L 480,778 L 479,779 L 472,779 L 471,780 L 464,780 L 463,781 L 456,781 L 455,782 L 444,782 L 443,783 L 440,782 L 439,783 L 432,783 L 431,782 L 421,782 L 414,779 L 411,775 L 411,772 L 413,769 L 417,767 L 422,767 L 423,766 L 426,766 L 427,765 L 432,765 L 433,764 L 439,764 L 440,763 L 448,762 L 449,761 L 452,761 L 453,760 L 458,759 L 461,757 L 463,757 L 470,752 L 474,751 L 477,748 L 479,748 L 481,746 L 487,743 L 489,743 L 491,741 L 493,741 L 496,739 L 498,739 L 499,738 L 501,738 L 508,735 L 511,735 L 515,733 L 519,733 L 520,732 L 523,732 L 524,731 L 528,731 L 529,730 L 551,730 L 552,731 L 555,731 L 556,732 L 558,732 L 565,735 L 568,735 L 570,737 L 578,739 L 580,741 L 582,741 L 584,743 L 589,744 L 591,746 L 593,746 L 596,748 L 600,748 L 599,744 L 597,744 L 591,741 L 589,739 L 589,738 L 599,728 L 599,727 L 607,718 L 607,717 L 615,706 L 618,699 L 620,697 L 621,693 L 623,690 L 623,688 L 625,685 L 626,680 L 628,678 L 628,676 L 629,675 L 629,672 L 632,665 L 632,659 L 629,659 L 628,661 L 628,664 L 627,665 L 627,667 L 624,674 L 624,677 L 622,680 L 620,687 L 618,691 L 616,693 L 616,695 L 614,699 L 612,701 L 612,703 L 608,708 L 607,711 L 605,712 L 604,715 L 601,718 L 601,719 L 596,724 L 596,725 L 593,728 L 592,728 L 592,729 L 587,734 L 586,734 L 585,736 L 582,737 L 581,736 L 576,735 L 573,733 L 568,732 L 565,730 L 563,730 L 556,727 L 552,727 L 551,726 L 531,726 L 530,727 L 525,727 L 524,728 L 518,728 L 517,729 L 515,729 L 508,732 L 501,733 L 498,735 L 496,735 L 490,738 L 488,738 L 480,742 L 478,744 L 476,744 L 474,746 L 472,746 L 466,751 L 464,751 L 455,756 L 447,757 L 443,755 L 441,753 L 438,752 L 436,750 L 427,746 L 425,744 L 391,727 L 389,727 L 386,725 L 381,724 L 373,720 L 370,720 L 369,719 L 366,719 L 365,718 L 362,718 L 361,717 L 358,717 L 357,716 L 353,716 L 352,715 L 349,715 L 348,714 L 329,713 L 328,714 L 325,714 L 323,715 L 321,717 L 320,717 L 319,719 L 316,719 L 315,718 L 312,718 L 311,717 L 304,717 L 303,716 L 288,716 L 282,721 L 282,723 L 281,724 L 278,723 L 276,721 L 276,720 L 267,711 L 267,710 L 263,706 L 263,705 L 259,701 L 259,700 L 255,696 L 250,688 L 247,685 L 247,684 L 243,679 L 242,676 L 240,674 L 239,671 L 235,666 L 217,630 L 217,632 L 218,633 L 219,643 L 220,644 L 220,646 L 221,647 L 221,649 L 224,656 L 224,659 L 226,662 L 227,667 L 230,672 L 232,679 L 234,681 L 234,683 L 238,691 L 240,693 L 240,695 L 242,697 L 247,707 L 250,710 L 251,713 L 253,715 L 255,719 L 259,723 L 261,727 L 266,732 L 266,733 L 271,739 L 271,740 L 266,744 L 264,751 L 269,756 L 275,759 L 283,761 L 286,763 L 289,763 L 290,764 L 295,765 L 298,767 L 301,767 L 309,771 L 317,773 L 321,776 L 319,778 L 310,778 L 309,779 L 296,780 L 295,781 L 288,782 L 284,784 L 278,791 L 277,793 L 277,796 L 276,797 L 277,801 L 280,805 L 298,805 L 299,806 L 308,806 L 309,807 L 324,807 L 325,808 L 332,808 L 333,809 L 340,809 L 341,810 L 346,810 L 347,811 L 351,811 L 352,812 L 357,812 L 358,813 L 362,813 L 363,814 L 366,814 L 367,815 L 372,815 L 376,817 L 387,819 L 388,820 L 390,820 L 397,823 L 400,823 L 401,824 L 407,825 L 410,827 L 412,827 L 413,828 L 418,829 L 421,831 L 424,831 L 429,834 L 434,835 L 436,837 L 440,839 L 442,839 L 452,845 L 455,845 L 456,846 L 473,846 L 474,845 L 483,845 L 484,844 L 495,843 L 496,842 L 500,842 L 501,841 L 504,841 L 505,840 L 508,840 L 509,839 L 513,839 L 517,837 L 520,837 L 524,835 L 527,835 L 528,834 L 539,831 L 542,829 L 544,829 L 550,826 L 552,826 L 557,823 L 560,823 L 573,816 L 575,816 L 587,810 L 589,808 L 593,807 L 598,803 L 603,801 L 608,797 L 611,796 L 616,792 L 619,791 L 622,788 L 630,783 L 634,779 L 635,779 L 644,771 L 645,771 L 649,767 L 650,767 L 650,766 L 652,764 L 653,764 L 662,755 L 663,755 L 663,754 L 666,751 L 667,751 L 667,750 L 685,730 L 687,726 L 691,722 L 691,721 L 698,712 L 699,709 L 706,699 L 709,692 L 711,690 L 713,686 L 713,684 L 720,671 L 720,669 L 724,661 L 726,653 L 728,650 L 728,648 L 730,644 L 731,637 L 732,636 L 733,630 L 734,629 L 734,626 L 735,625 L 735,620 L 736,619 L 736,616 L 737,615 L 737,611 L 738,610 L 739,596 L 740,595 L 740,587 L 741,586 Z M 269,748 L 273,744 L 275,743 L 278,743 L 282,741 L 303,741 L 304,742 L 307,742 L 308,743 L 313,743 L 314,744 L 317,744 L 321,746 L 332,748 L 333,749 L 335,749 L 339,751 L 342,751 L 343,752 L 345,752 L 352,755 L 355,755 L 356,756 L 358,756 L 359,757 L 361,757 L 368,760 L 371,760 L 372,761 L 377,762 L 380,764 L 383,764 L 388,767 L 391,767 L 392,768 L 395,768 L 398,770 L 401,770 L 405,772 L 407,774 L 405,776 L 389,776 L 388,775 L 370,775 L 369,776 L 334,776 L 327,772 L 325,772 L 317,768 L 314,768 L 311,766 L 309,766 L 305,764 L 302,764 L 299,762 L 297,762 L 296,761 L 294,761 L 287,758 L 284,758 L 281,756 L 274,754 L 269,751 Z M 286,723 L 288,720 L 292,720 L 293,719 L 295,720 L 296,719 L 297,720 L 304,720 L 305,721 L 309,721 L 310,722 L 319,723 L 320,724 L 326,725 L 330,727 L 337,728 L 338,729 L 349,732 L 352,734 L 357,735 L 360,737 L 362,737 L 365,739 L 367,739 L 370,741 L 377,743 L 388,749 L 390,749 L 392,751 L 394,751 L 398,753 L 400,755 L 407,757 L 409,759 L 412,760 L 414,762 L 414,764 L 409,768 L 405,768 L 399,765 L 396,765 L 395,764 L 381,760 L 375,757 L 368,756 L 360,752 L 356,752 L 353,750 L 350,750 L 343,747 L 340,747 L 339,746 L 337,746 L 333,744 L 330,744 L 329,743 L 326,743 L 322,741 L 304,738 L 298,735 L 295,732 L 291,730 L 287,726 Z M 325,720 L 329,717 L 341,717 L 342,718 L 347,718 L 348,719 L 351,719 L 352,720 L 356,720 L 357,721 L 365,722 L 366,723 L 368,723 L 369,724 L 383,728 L 392,733 L 399,735 L 401,737 L 405,739 L 407,739 L 409,741 L 418,745 L 420,747 L 425,749 L 427,751 L 431,752 L 433,754 L 436,755 L 439,758 L 437,760 L 432,760 L 431,761 L 426,761 L 424,762 L 408,754 L 406,752 L 404,752 L 397,748 L 395,748 L 393,746 L 389,744 L 387,744 L 382,741 L 380,741 L 375,738 L 373,738 L 371,736 L 369,736 L 363,733 L 361,733 L 358,731 L 353,730 L 351,728 L 348,728 L 347,727 L 345,727 L 344,726 L 342,726 L 335,723 L 331,723 Z M 667,330 L 665,329 L 656,329 L 655,328 L 635,328 L 634,327 L 612,326 L 611,325 L 606,325 L 605,324 L 594,323 L 593,322 L 589,322 L 588,321 L 579,320 L 575,318 L 571,318 L 570,317 L 567,317 L 566,316 L 562,316 L 559,314 L 552,313 L 551,312 L 546,311 L 543,309 L 536,308 L 533,306 L 531,306 L 530,305 L 525,304 L 522,302 L 517,301 L 514,299 L 512,299 L 508,296 L 506,296 L 496,291 L 495,289 L 492,289 L 491,288 L 470,288 L 469,289 L 462,289 L 461,290 L 449,291 L 448,292 L 445,292 L 444,293 L 440,293 L 439,294 L 428,296 L 427,297 L 425,297 L 424,298 L 422,298 L 421,299 L 419,299 L 418,300 L 416,300 L 415,301 L 413,301 L 406,304 L 403,304 L 400,306 L 393,308 L 388,311 L 381,313 L 370,319 L 368,319 L 364,321 L 362,323 L 360,323 L 358,325 L 347,330 L 345,332 L 342,333 L 339,336 L 337,336 L 334,339 L 331,340 L 329,342 L 325,344 L 322,347 L 321,347 L 311,355 L 310,355 L 295,368 L 294,368 L 294,369 L 290,373 L 289,373 L 275,387 L 274,389 L 272,390 L 272,391 L 266,397 L 264,401 L 258,407 L 256,411 L 246,424 L 245,427 L 241,432 L 236,443 L 232,448 L 232,450 L 225,464 L 224,469 L 221,474 L 218,485 L 216,488 L 215,495 L 213,499 L 213,503 L 212,504 L 211,510 L 210,511 L 210,516 L 209,517 L 209,520 L 208,521 L 208,526 L 207,527 L 207,534 L 206,535 L 206,541 L 205,542 L 205,562 L 204,563 L 204,567 L 205,568 L 205,570 L 206,571 L 208,570 L 208,552 L 209,551 L 209,541 L 210,540 L 210,533 L 211,532 L 211,526 L 212,525 L 212,520 L 213,519 L 213,516 L 214,515 L 214,512 L 215,511 L 215,507 L 217,503 L 217,499 L 220,492 L 220,489 L 223,483 L 223,480 L 225,477 L 225,475 L 229,467 L 229,465 L 231,463 L 232,458 L 237,448 L 239,446 L 239,444 L 243,439 L 243,437 L 247,432 L 247,430 L 249,428 L 255,418 L 258,415 L 261,410 L 263,409 L 264,406 L 268,402 L 268,401 L 270,399 L 271,399 L 274,394 L 276,393 L 276,392 L 293,375 L 294,375 L 302,367 L 303,367 L 304,365 L 305,365 L 310,360 L 313,359 L 318,354 L 322,352 L 332,344 L 335,343 L 346,335 L 348,335 L 350,333 L 355,331 L 357,329 L 359,329 L 361,327 L 366,325 L 368,323 L 370,323 L 377,319 L 379,319 L 381,317 L 383,317 L 390,313 L 392,313 L 400,309 L 403,309 L 406,307 L 408,307 L 409,306 L 411,306 L 418,303 L 421,303 L 424,301 L 427,301 L 428,300 L 431,300 L 432,299 L 435,299 L 436,298 L 439,298 L 440,297 L 443,297 L 444,296 L 459,294 L 460,293 L 467,293 L 468,292 L 481,292 L 482,291 L 483,292 L 490,292 L 491,293 L 493,293 L 495,295 L 503,299 L 505,299 L 507,301 L 509,301 L 511,303 L 514,303 L 522,307 L 530,309 L 532,311 L 539,312 L 542,314 L 548,315 L 549,316 L 551,316 L 558,319 L 562,319 L 566,321 L 574,322 L 575,323 L 579,323 L 580,324 L 583,324 L 584,325 L 587,325 L 588,326 L 591,326 L 592,327 L 598,327 L 599,328 L 611,329 L 612,330 L 619,330 L 620,331 L 634,331 L 635,332 L 653,332 L 654,333 L 663,333 L 665,335 L 665,338 L 663,342 L 656,348 L 654,348 L 653,349 L 649,349 L 648,350 L 643,350 L 642,351 L 634,351 L 633,352 L 619,352 L 618,353 L 608,353 L 607,354 L 573,354 L 572,355 L 559,355 L 558,354 L 538,354 L 529,349 L 526,349 L 525,348 L 518,348 L 517,347 L 502,347 L 501,348 L 480,349 L 479,350 L 473,350 L 472,351 L 467,351 L 466,352 L 458,352 L 457,353 L 454,353 L 453,354 L 446,354 L 445,355 L 435,356 L 433,358 L 433,359 L 434,360 L 439,360 L 440,359 L 447,359 L 448,358 L 451,358 L 452,357 L 458,357 L 459,356 L 472,355 L 473,354 L 479,354 L 480,353 L 487,353 L 488,352 L 498,352 L 499,351 L 519,351 L 520,352 L 524,352 L 525,353 L 528,353 L 530,354 L 534,358 L 534,363 L 531,366 L 529,366 L 528,367 L 525,367 L 524,368 L 518,368 L 517,369 L 512,369 L 511,370 L 506,370 L 505,371 L 501,371 L 500,372 L 496,372 L 495,373 L 484,376 L 482,378 L 480,378 L 478,380 L 475,381 L 468,386 L 464,387 L 462,389 L 458,391 L 456,391 L 447,396 L 444,396 L 443,397 L 441,397 L 434,400 L 431,400 L 430,401 L 427,401 L 426,402 L 416,403 L 415,404 L 395,404 L 394,403 L 391,403 L 390,402 L 379,399 L 371,395 L 369,395 L 364,392 L 357,390 L 355,388 L 353,388 L 350,386 L 346,386 L 346,389 L 347,389 L 349,391 L 354,392 L 357,395 L 357,396 L 353,400 L 352,400 L 348,405 L 346,406 L 343,411 L 339,415 L 336,421 L 333,424 L 330,430 L 328,432 L 328,434 L 325,438 L 324,442 L 321,447 L 319,455 L 317,458 L 317,460 L 314,467 L 314,471 L 313,472 L 313,474 L 314,475 L 316,475 L 317,474 L 317,472 L 319,468 L 319,464 L 321,461 L 321,459 L 322,458 L 323,453 L 325,450 L 325,448 L 327,446 L 327,444 L 336,427 L 343,418 L 345,414 L 352,407 L 352,406 L 362,397 L 365,397 L 368,399 L 370,399 L 378,403 L 381,403 L 384,405 L 390,406 L 391,407 L 395,407 L 396,408 L 413,408 L 414,407 L 420,407 L 421,406 L 431,405 L 434,403 L 437,403 L 438,402 L 441,402 L 444,400 L 450,399 L 457,395 L 459,395 L 466,391 L 468,391 L 473,387 L 488,379 L 490,379 L 494,377 L 499,377 L 503,380 L 506,381 L 508,383 L 510,383 L 512,385 L 517,387 L 519,389 L 526,392 L 528,394 L 532,395 L 534,397 L 544,402 L 546,402 L 555,407 L 557,407 L 560,409 L 562,409 L 570,413 L 573,413 L 576,415 L 580,415 L 584,417 L 588,417 L 589,418 L 593,418 L 594,419 L 599,419 L 600,420 L 604,420 L 605,421 L 617,421 L 618,420 L 623,419 L 627,415 L 635,416 L 636,417 L 642,417 L 643,418 L 657,418 L 658,417 L 660,417 L 663,414 L 664,410 L 663,409 L 663,407 L 655,399 L 655,398 L 656,397 L 661,397 L 662,396 L 667,396 L 668,395 L 671,395 L 677,392 L 681,387 L 681,382 L 677,378 L 671,375 L 668,375 L 665,373 L 663,373 L 659,371 L 656,371 L 650,368 L 644,367 L 641,365 L 639,365 L 638,364 L 630,362 L 627,360 L 625,360 L 623,358 L 625,356 L 648,354 L 649,353 L 653,353 L 654,352 L 659,351 L 667,344 L 667,342 L 669,338 L 669,334 Z M 506,376 L 512,373 L 519,373 L 520,372 L 521,373 L 524,373 L 526,375 L 530,376 L 534,379 L 538,381 L 540,381 L 542,383 L 546,384 L 559,391 L 564,392 L 568,395 L 570,395 L 573,397 L 575,397 L 578,399 L 580,399 L 583,401 L 585,401 L 593,405 L 595,405 L 596,406 L 598,406 L 599,407 L 601,407 L 602,408 L 604,408 L 611,411 L 615,411 L 616,412 L 618,412 L 620,414 L 620,415 L 619,416 L 616,416 L 615,417 L 599,416 L 598,415 L 594,415 L 593,414 L 584,413 L 583,412 L 581,412 L 580,411 L 578,411 L 571,408 L 568,408 L 565,406 L 558,404 L 551,400 L 549,400 L 543,396 L 541,396 L 539,394 L 522,386 L 520,384 L 518,384 L 516,382 L 513,381 Z M 531,371 L 535,367 L 537,366 L 541,366 L 544,368 L 547,368 L 550,370 L 552,370 L 553,371 L 555,371 L 556,372 L 558,372 L 559,373 L 561,373 L 568,376 L 571,376 L 577,379 L 583,380 L 584,381 L 586,381 L 593,384 L 596,384 L 600,386 L 607,387 L 610,389 L 613,389 L 616,391 L 620,391 L 624,393 L 628,393 L 629,394 L 633,394 L 634,395 L 642,396 L 653,403 L 657,407 L 658,407 L 660,410 L 659,412 L 656,414 L 642,414 L 641,413 L 635,413 L 634,412 L 631,412 L 627,410 L 624,410 L 623,409 L 612,407 L 611,406 L 609,406 L 608,405 L 594,401 L 591,399 L 586,398 L 583,396 L 581,396 L 579,394 L 576,394 L 567,389 L 560,387 L 556,384 L 554,384 L 539,376 L 537,376 L 535,374 L 532,373 Z M 539,359 L 540,358 L 551,358 L 552,359 L 575,359 L 576,358 L 604,358 L 605,357 L 607,357 L 608,358 L 611,358 L 614,360 L 616,360 L 621,363 L 629,365 L 637,369 L 643,370 L 649,373 L 652,373 L 655,375 L 658,375 L 661,377 L 670,379 L 672,381 L 674,381 L 677,384 L 677,385 L 674,389 L 670,391 L 662,392 L 661,393 L 648,393 L 647,392 L 634,391 L 633,390 L 630,390 L 629,389 L 626,389 L 625,388 L 621,388 L 617,386 L 614,386 L 610,384 L 607,384 L 603,382 L 600,382 L 596,380 L 593,380 L 591,378 L 587,378 L 584,376 L 582,376 L 575,373 L 572,373 L 571,372 L 569,372 L 568,371 L 566,371 L 565,370 L 563,370 L 562,369 L 560,369 L 559,368 L 545,364 L 541,362 L 539,360 Z" fill="#FFFFFF" fill-rule="evenodd"/>
  <path d="M 452,1041 L 450,1041 L 448,1044 L 448,1056 L 449,1057 L 452,1055 Z M 552,1020 L 551,1022 L 551,1026 L 553,1028 L 559,1029 L 561,1031 L 561,1035 L 559,1038 L 561,1038 L 563,1035 L 563,1025 L 560,1022 L 555,1022 Z M 533,1020 L 532,1022 L 532,1026 L 534,1028 L 539,1029 L 542,1032 L 542,1055 L 541,1056 L 543,1056 L 544,1055 L 544,1026 L 543,1023 L 536,1022 Z M 515,1020 L 514,1022 L 514,1026 L 516,1028 L 521,1029 L 524,1032 L 524,1056 L 526,1055 L 526,1025 L 522,1022 L 518,1022 Z M 497,1020 L 496,1022 L 496,1026 L 500,1029 L 504,1029 L 506,1031 L 506,1035 L 504,1038 L 506,1039 L 508,1035 L 508,1024 L 506,1022 L 500,1022 Z M 448,1020 L 447,1022 L 447,1027 L 451,1029 L 454,1028 L 462,1028 L 463,1029 L 468,1028 L 470,1030 L 467,1038 L 467,1043 L 468,1044 L 468,1056 L 470,1056 L 471,1055 L 470,1034 L 473,1028 L 472,1023 L 471,1022 L 451,1022 Z M 417,1020 L 415,1022 L 415,1027 L 419,1029 L 420,1028 L 431,1028 L 434,1029 L 437,1032 L 437,1055 L 440,1055 L 440,1029 L 438,1024 L 434,1022 L 419,1022 Z M 397,1021 L 397,1026 L 399,1028 L 405,1029 L 407,1031 L 407,1035 L 406,1036 L 406,1039 L 407,1039 L 409,1035 L 409,1026 L 407,1022 L 400,1022 L 399,1020 Z M 379,1020 L 378,1021 L 378,1026 L 380,1028 L 385,1029 L 388,1032 L 388,1055 L 390,1055 L 390,1026 L 388,1023 L 386,1022 L 382,1022 Z M 361,1020 L 360,1022 L 360,1026 L 362,1028 L 365,1029 L 367,1028 L 370,1030 L 370,1033 L 368,1036 L 368,1067 L 370,1067 L 371,1065 L 371,1044 L 370,1043 L 370,1037 L 371,1036 L 373,1026 L 370,1022 L 364,1022 Z M 567,1007 L 568,1011 L 571,1013 L 570,1020 L 569,1021 L 569,1026 L 573,1029 L 582,1028 L 583,1029 L 588,1029 L 590,1031 L 589,1039 L 579,1050 L 578,1056 L 581,1056 L 582,1055 L 582,1050 L 583,1048 L 585,1047 L 592,1038 L 592,1026 L 589,1022 L 573,1022 L 571,1020 L 572,1018 L 570,1016 L 573,1013 L 573,1009 L 570,1007 Z M 319,944 L 313,944 L 311,950 L 312,953 L 319,947 Z M 741,940 L 738,940 L 735,942 L 733,947 L 733,950 L 734,951 L 737,950 L 742,943 Z M 731,959 L 729,957 L 725,957 L 725,960 L 723,964 L 717,971 L 702,982 L 699,981 L 698,978 L 698,968 L 704,963 L 707,964 L 705,968 L 708,968 L 712,962 L 710,959 L 706,959 L 700,963 L 693,971 L 691,970 L 697,962 L 698,958 L 701,955 L 703,950 L 708,943 L 709,939 L 711,937 L 711,934 L 708,932 L 706,932 L 705,933 L 705,937 L 701,945 L 699,947 L 698,951 L 694,956 L 691,963 L 689,965 L 688,969 L 676,978 L 673,977 L 673,970 L 672,969 L 672,967 L 675,965 L 679,960 L 679,957 L 676,955 L 670,959 L 670,961 L 668,963 L 667,966 L 667,969 L 664,973 L 662,973 L 660,975 L 658,975 L 655,971 L 659,964 L 659,961 L 657,959 L 653,959 L 652,961 L 652,965 L 651,966 L 652,971 L 648,976 L 640,983 L 638,982 L 638,980 L 646,965 L 646,962 L 642,960 L 638,969 L 630,976 L 625,978 L 624,975 L 628,967 L 626,964 L 627,960 L 624,958 L 621,958 L 614,964 L 610,971 L 605,976 L 592,984 L 591,981 L 593,978 L 596,969 L 604,961 L 605,961 L 605,960 L 607,959 L 607,958 L 609,957 L 609,956 L 617,948 L 625,935 L 623,930 L 617,929 L 604,946 L 602,951 L 595,961 L 590,972 L 578,982 L 576,982 L 575,980 L 577,978 L 578,974 L 585,963 L 585,960 L 584,959 L 581,959 L 579,962 L 577,959 L 573,959 L 566,964 L 562,969 L 544,982 L 543,980 L 548,972 L 549,968 L 552,963 L 551,960 L 549,959 L 546,961 L 541,958 L 539,958 L 536,960 L 531,966 L 530,966 L 528,970 L 524,974 L 517,978 L 515,976 L 519,968 L 519,965 L 517,963 L 519,960 L 516,958 L 512,958 L 507,962 L 502,969 L 498,981 L 499,984 L 501,986 L 506,987 L 508,986 L 513,980 L 518,980 L 521,978 L 523,978 L 524,979 L 523,980 L 524,983 L 527,985 L 529,985 L 542,970 L 543,972 L 537,981 L 536,985 L 523,991 L 521,993 L 518,994 L 516,997 L 519,1003 L 523,1006 L 525,1006 L 530,1001 L 534,994 L 537,991 L 538,988 L 541,985 L 543,985 L 545,983 L 548,982 L 556,975 L 558,976 L 556,979 L 556,984 L 559,987 L 561,987 L 566,983 L 569,978 L 571,977 L 572,979 L 570,983 L 572,986 L 575,987 L 579,985 L 586,978 L 587,979 L 587,986 L 592,988 L 599,984 L 606,977 L 608,978 L 607,979 L 607,983 L 608,985 L 615,987 L 617,986 L 622,980 L 627,980 L 629,978 L 631,978 L 631,977 L 634,975 L 635,978 L 633,981 L 633,985 L 636,988 L 639,988 L 639,987 L 653,974 L 654,976 L 656,977 L 660,977 L 663,975 L 664,973 L 667,972 L 669,976 L 669,981 L 666,982 L 660,987 L 661,991 L 663,993 L 666,993 L 669,991 L 673,986 L 673,983 L 682,976 L 683,978 L 680,983 L 680,986 L 683,987 L 685,985 L 685,983 L 693,973 L 694,974 L 694,983 L 697,986 L 701,986 L 707,982 L 707,981 L 716,973 L 717,975 L 712,985 L 712,989 L 717,993 L 720,992 L 729,985 L 728,983 L 719,989 L 716,987 L 718,984 L 718,982 L 721,978 L 721,976 L 725,971 L 726,968 L 729,965 Z M 530,991 L 531,993 L 525,1001 L 522,1001 L 521,1000 L 521,997 Z M 663,988 L 666,985 L 668,986 L 666,989 Z M 621,966 L 622,967 L 620,972 L 620,975 L 621,976 L 619,980 L 615,984 L 613,984 L 612,983 L 613,976 L 618,967 Z M 512,965 L 513,966 L 513,969 L 512,970 L 512,978 L 506,984 L 504,984 L 503,983 L 504,977 L 507,971 Z M 576,963 L 578,965 L 570,975 L 562,983 L 560,981 L 566,971 L 572,965 Z M 544,962 L 545,965 L 543,966 L 529,981 L 528,981 L 527,979 L 535,967 L 541,962 Z M 619,935 L 620,936 L 618,941 L 609,953 L 603,959 L 602,957 L 613,942 L 614,939 Z M 513,924 L 510,924 L 503,932 L 491,942 L 491,943 L 489,944 L 489,945 L 482,952 L 481,952 L 476,958 L 475,958 L 471,964 L 470,964 L 469,962 L 475,953 L 479,944 L 484,937 L 487,931 L 487,928 L 484,926 L 478,927 L 475,929 L 472,929 L 467,932 L 465,932 L 454,939 L 454,944 L 457,944 L 469,935 L 477,931 L 480,932 L 475,939 L 474,943 L 471,946 L 468,953 L 462,962 L 462,964 L 460,966 L 458,972 L 454,978 L 452,985 L 456,989 L 458,988 L 458,985 L 460,983 L 462,977 L 472,966 L 474,967 L 474,971 L 478,983 L 484,991 L 489,992 L 493,990 L 497,986 L 497,984 L 496,984 L 492,987 L 490,987 L 486,983 L 483,974 L 481,971 L 481,968 L 478,960 L 502,937 L 503,937 L 504,939 L 501,943 L 500,948 L 506,943 L 516,929 L 516,927 Z M 444,929 L 442,926 L 437,924 L 435,924 L 432,926 L 424,938 L 418,945 L 414,953 L 410,958 L 406,968 L 388,983 L 386,981 L 389,977 L 391,971 L 397,962 L 396,959 L 392,959 L 390,962 L 388,959 L 384,959 L 382,960 L 369,973 L 357,982 L 356,982 L 355,980 L 363,965 L 365,963 L 365,961 L 362,959 L 360,959 L 349,969 L 347,968 L 352,961 L 364,939 L 366,937 L 366,934 L 367,933 L 365,931 L 361,931 L 358,940 L 349,956 L 347,958 L 346,962 L 344,964 L 343,967 L 335,975 L 319,984 L 316,984 L 315,983 L 316,976 L 318,974 L 319,971 L 327,963 L 330,964 L 329,969 L 332,967 L 336,960 L 335,956 L 333,956 L 332,959 L 330,961 L 327,959 L 324,959 L 318,964 L 311,974 L 309,974 L 308,976 L 304,978 L 301,981 L 299,981 L 298,980 L 309,963 L 309,960 L 304,959 L 304,961 L 301,965 L 301,967 L 299,969 L 298,972 L 296,974 L 296,976 L 293,981 L 293,985 L 298,987 L 309,978 L 310,979 L 310,983 L 314,987 L 320,987 L 330,981 L 336,976 L 337,978 L 334,982 L 334,986 L 338,988 L 340,985 L 341,981 L 357,964 L 358,967 L 353,974 L 352,978 L 350,981 L 350,984 L 353,987 L 357,986 L 367,977 L 368,978 L 367,983 L 370,987 L 372,987 L 377,983 L 382,976 L 384,977 L 382,980 L 382,985 L 385,987 L 387,987 L 393,983 L 393,982 L 395,981 L 400,975 L 401,975 L 402,978 L 399,984 L 399,995 L 404,1001 L 409,1001 L 414,996 L 415,992 L 414,992 L 407,998 L 405,998 L 403,994 L 404,984 L 406,978 L 409,973 L 409,971 L 411,968 L 420,961 L 420,960 L 427,953 L 428,953 L 433,946 L 435,945 L 436,942 L 441,936 Z M 336,976 L 337,975 L 338,976 L 337,977 Z M 388,963 L 389,965 L 387,968 L 373,983 L 372,982 L 372,979 L 374,977 L 375,974 L 383,965 L 386,963 Z M 414,961 L 415,960 L 416,961 L 415,962 Z M 438,929 L 439,930 L 438,933 L 432,943 L 419,959 L 416,961 L 415,959 L 421,951 L 423,946 L 435,930 Z M 305,935 L 300,931 L 296,932 L 284,942 L 284,943 L 282,944 L 282,945 L 280,946 L 280,947 L 273,954 L 271,952 L 277,944 L 279,938 L 281,936 L 281,933 L 278,932 L 274,932 L 272,933 L 258,946 L 251,951 L 250,950 L 251,948 L 254,945 L 255,942 L 258,939 L 259,936 L 264,929 L 263,925 L 261,923 L 258,922 L 257,923 L 254,923 L 239,931 L 228,939 L 223,944 L 221,947 L 221,951 L 223,953 L 225,953 L 228,947 L 242,933 L 248,929 L 250,929 L 252,927 L 255,927 L 256,928 L 256,930 L 252,935 L 250,940 L 246,945 L 242,953 L 235,963 L 232,970 L 230,972 L 227,979 L 227,984 L 230,988 L 233,986 L 233,984 L 238,974 L 241,971 L 242,968 L 256,951 L 257,951 L 269,939 L 270,939 L 271,941 L 265,952 L 263,954 L 263,956 L 261,958 L 261,960 L 259,962 L 251,979 L 254,983 L 257,983 L 268,964 L 279,951 L 294,936 L 295,936 L 296,938 L 293,942 L 286,956 L 284,958 L 282,963 L 280,965 L 280,967 L 278,969 L 274,978 L 274,983 L 278,988 L 284,986 L 284,984 L 287,983 L 287,982 L 282,985 L 279,985 L 278,983 L 281,978 L 282,974 L 286,969 L 288,964 L 292,959 L 294,954 L 297,951 L 299,946 L 305,937 Z M 843,343 L 839,338 L 836,337 L 830,337 L 820,341 L 817,344 L 814,344 L 806,349 L 803,348 L 801,350 L 806,356 L 808,357 L 815,357 L 832,347 L 835,346 L 843,347 Z M 64,313 L 61,316 L 59,321 L 60,329 L 64,337 L 69,343 L 70,343 L 78,351 L 80,351 L 81,349 L 76,344 L 73,337 L 74,336 L 73,333 L 77,325 L 84,321 L 92,322 L 99,325 L 101,327 L 103,327 L 110,333 L 114,335 L 115,337 L 119,339 L 125,346 L 125,349 L 123,351 L 120,357 L 120,359 L 118,361 L 113,372 L 111,374 L 111,376 L 109,378 L 93,376 L 89,374 L 86,374 L 80,372 L 72,368 L 62,359 L 62,357 L 64,354 L 64,350 L 56,345 L 50,345 L 48,346 L 41,355 L 39,356 L 36,355 L 34,356 L 35,359 L 40,364 L 48,368 L 53,368 L 60,363 L 70,372 L 81,378 L 91,381 L 94,383 L 97,383 L 104,386 L 107,386 L 118,391 L 122,391 L 123,387 L 125,385 L 138,358 L 141,354 L 140,352 L 126,338 L 122,336 L 121,334 L 97,318 L 94,318 L 84,313 L 76,312 L 75,311 L 69,311 Z M 887,310 L 878,310 L 871,313 L 868,316 L 867,321 L 870,330 L 872,332 L 874,338 L 876,340 L 878,346 L 880,348 L 882,354 L 884,356 L 886,362 L 891,370 L 890,371 L 885,371 L 884,370 L 872,371 L 869,373 L 866,373 L 861,376 L 859,376 L 857,378 L 846,383 L 843,386 L 829,393 L 824,393 L 824,396 L 826,398 L 830,400 L 838,400 L 849,395 L 862,385 L 878,376 L 884,375 L 885,374 L 889,374 L 890,375 L 892,374 L 893,375 L 894,374 L 897,374 L 905,369 L 907,365 L 906,360 L 903,356 L 903,354 L 899,348 L 898,344 L 895,340 L 895,338 L 891,332 L 890,328 L 887,324 L 887,322 L 885,319 L 885,317 L 888,313 Z M 114,295 L 115,301 L 120,307 L 135,318 L 150,331 L 159,337 L 173,349 L 176,350 L 177,349 L 177,344 L 173,339 L 168,336 L 167,334 L 163,332 L 153,323 L 144,317 L 139,312 L 128,304 L 127,302 L 124,301 L 116,294 Z M 83,271 L 83,275 L 86,281 L 87,281 L 89,284 L 94,287 L 101,286 L 108,279 L 117,266 L 121,263 L 123,259 L 128,253 L 131,251 L 134,251 L 135,250 L 138,251 L 144,255 L 145,257 L 151,262 L 153,266 L 151,297 L 152,298 L 153,305 L 156,311 L 163,317 L 167,317 L 170,313 L 169,308 L 165,306 L 159,300 L 157,295 L 158,276 L 159,275 L 159,264 L 157,259 L 149,250 L 132,238 L 123,237 L 116,240 L 107,250 L 104,255 L 102,256 L 96,265 L 94,266 L 90,271 L 88,272 Z M 835,235 L 827,235 L 822,237 L 817,242 L 816,244 L 816,249 L 827,265 L 832,270 L 833,273 L 838,278 L 841,285 L 840,292 L 829,304 L 792,332 L 793,335 L 801,335 L 810,327 L 814,325 L 823,317 L 845,301 L 854,292 L 858,284 L 857,277 L 853,269 L 833,242 L 833,239 L 835,237 Z M 795,195 L 792,195 L 785,198 L 779,205 L 779,211 L 782,217 L 784,218 L 789,225 L 789,231 L 783,237 L 775,241 L 768,241 L 768,244 L 775,245 L 787,241 L 791,238 L 791,237 L 793,236 L 803,225 L 805,220 L 805,217 L 803,212 L 794,202 L 794,197 Z M 753,160 L 747,161 L 740,168 L 739,171 L 739,177 L 742,183 L 743,183 L 749,190 L 749,196 L 744,204 L 736,213 L 728,225 L 726,226 L 721,234 L 714,242 L 711,247 L 712,248 L 717,248 L 723,243 L 726,238 L 731,233 L 733,229 L 740,221 L 741,218 L 745,215 L 755,200 L 757,199 L 764,188 L 765,185 L 764,184 L 765,183 L 762,176 L 756,171 L 753,167 L 753,163 L 754,162 Z M 215,156 L 210,156 L 202,159 L 199,159 L 196,157 L 195,158 L 195,163 L 200,173 L 203,175 L 206,175 L 207,176 L 208,175 L 212,175 L 217,173 L 221,176 L 223,180 L 226,214 L 227,215 L 228,223 L 230,228 L 227,230 L 224,234 L 220,236 L 211,244 L 209,243 L 209,240 L 206,233 L 206,229 L 204,226 L 197,205 L 193,197 L 191,195 L 191,193 L 196,189 L 197,185 L 195,182 L 189,177 L 183,177 L 175,181 L 172,181 L 170,179 L 168,179 L 168,186 L 174,195 L 179,197 L 187,196 L 190,200 L 197,221 L 199,224 L 199,227 L 203,238 L 203,242 L 205,247 L 203,250 L 201,250 L 199,248 L 195,247 L 184,240 L 173,229 L 165,217 L 165,215 L 171,208 L 169,204 L 165,200 L 161,198 L 157,198 L 149,202 L 141,201 L 142,208 L 148,217 L 154,219 L 160,217 L 163,220 L 165,226 L 170,232 L 174,239 L 175,239 L 176,241 L 196,257 L 199,258 L 208,266 L 210,266 L 240,241 L 244,239 L 244,236 L 239,228 L 239,226 L 235,218 L 232,209 L 232,206 L 230,202 L 230,198 L 228,193 L 226,174 L 225,173 L 224,166 L 222,162 Z M 708,131 L 702,133 L 699,136 L 695,143 L 695,147 L 696,150 L 700,155 L 707,159 L 710,162 L 711,167 L 708,170 L 701,174 L 696,179 L 690,190 L 686,195 L 684,200 L 680,205 L 680,207 L 677,210 L 675,215 L 665,230 L 663,235 L 659,240 L 658,244 L 665,244 L 674,236 L 687,211 L 689,209 L 689,207 L 691,205 L 691,203 L 693,201 L 699,188 L 705,179 L 716,168 L 717,168 L 723,161 L 724,158 L 724,152 L 720,146 L 713,142 L 709,138 L 708,136 L 709,132 Z M 363,89 L 353,89 L 348,85 L 346,86 L 345,95 L 346,96 L 347,102 L 352,106 L 355,107 L 361,107 L 365,111 L 365,119 L 362,126 L 362,130 L 360,134 L 360,137 L 357,146 L 356,162 L 353,165 L 350,165 L 335,171 L 332,171 L 331,170 L 331,163 L 332,162 L 332,125 L 331,124 L 331,118 L 339,113 L 339,109 L 337,104 L 333,100 L 330,99 L 319,100 L 315,96 L 314,96 L 313,98 L 313,103 L 312,105 L 313,106 L 314,112 L 319,117 L 326,118 L 327,119 L 327,161 L 326,162 L 326,168 L 324,174 L 320,173 L 310,161 L 306,155 L 301,143 L 301,140 L 299,135 L 299,131 L 298,130 L 301,127 L 307,124 L 307,121 L 303,113 L 299,110 L 286,110 L 283,107 L 281,108 L 281,111 L 280,112 L 281,121 L 283,125 L 286,128 L 288,129 L 294,129 L 295,130 L 295,134 L 296,135 L 295,136 L 296,137 L 296,141 L 297,142 L 297,146 L 299,150 L 299,153 L 303,160 L 303,162 L 322,192 L 365,178 L 365,168 L 364,167 L 364,141 L 365,140 L 367,123 L 370,114 L 371,101 L 370,100 L 370,96 L 369,94 Z M 581,83 L 574,91 L 573,94 L 573,102 L 577,106 L 581,108 L 591,110 L 598,113 L 601,113 L 607,115 L 614,119 L 616,122 L 616,132 L 615,133 L 615,137 L 613,141 L 613,145 L 610,154 L 608,157 L 606,164 L 603,168 L 592,166 L 585,163 L 582,163 L 575,160 L 572,160 L 568,158 L 565,158 L 556,155 L 549,168 L 549,170 L 611,188 L 618,175 L 618,173 L 608,170 L 607,168 L 609,167 L 614,160 L 620,147 L 620,144 L 623,137 L 623,134 L 625,130 L 626,122 L 627,121 L 627,110 L 623,104 L 619,101 L 609,97 L 606,97 L 599,94 L 596,94 L 586,90 L 584,87 L 583,83 Z M 459,81 L 452,78 L 442,77 L 439,75 L 438,72 L 435,72 L 434,74 L 434,78 L 433,79 L 434,87 L 440,94 L 445,94 L 447,96 L 442,109 L 442,113 L 440,118 L 404,84 L 402,81 L 401,76 L 400,75 L 398,76 L 394,86 L 395,87 L 394,88 L 395,93 L 398,99 L 403,105 L 404,105 L 413,114 L 404,122 L 399,134 L 399,138 L 401,142 L 401,145 L 408,159 L 408,163 L 404,166 L 406,169 L 407,168 L 421,167 L 424,163 L 424,157 L 419,147 L 411,137 L 409,132 L 409,125 L 410,123 L 416,118 L 418,118 L 430,130 L 431,130 L 435,135 L 447,145 L 448,147 L 449,147 L 460,158 L 462,164 L 464,164 L 466,162 L 468,157 L 468,148 L 462,138 L 449,126 L 446,119 L 447,108 L 450,103 L 452,96 L 456,94 L 461,94 L 462,93 L 462,88 L 461,87 L 461,84 Z M 490,70 L 486,74 L 484,79 L 484,83 L 483,84 L 485,90 L 488,93 L 491,94 L 499,94 L 500,95 L 508,95 L 509,96 L 525,97 L 530,99 L 536,105 L 537,108 L 537,126 L 536,127 L 536,137 L 535,138 L 535,147 L 534,148 L 534,156 L 533,157 L 533,168 L 534,169 L 540,164 L 540,160 L 541,159 L 541,149 L 542,148 L 543,128 L 544,127 L 544,120 L 545,119 L 545,105 L 546,104 L 546,101 L 545,100 L 545,92 L 542,86 L 536,82 L 530,81 L 529,80 L 518,79 L 517,78 L 498,77 L 494,75 L 492,71 Z" fill="#A73F58" fill-rule="evenodd"/>
</svg>