<svg xmlns="http://www.w3.org/2000/svg" viewBox="108 182 731 731" role="img" aria-label="Michal Kogalovski logo">
  <circle cx="473.5" cy="548.0" r="347.5" fill="#EB9DB3"/>
  <path d="M 455,654 L 452,657 L 449,662 L 449,664 L 448,665 L 448,671 L 449,672 L 449,674 L 452,679 L 456,683 L 458,683 L 461,685 L 464,685 L 465,686 L 472,685 L 479,681 L 482,674 L 480,675 L 480,676 L 478,678 L 472,681 L 469,681 L 468,682 L 459,679 L 455,675 L 453,671 L 453,661 L 455,659 L 456,656 L 460,653 L 460,652 Z M 741,564 L 740,563 L 738,563 L 737,564 L 737,587 L 736,588 L 736,597 L 735,598 L 734,610 L 733,611 L 733,615 L 732,616 L 732,621 L 730,624 L 730,629 L 728,633 L 728,636 L 726,640 L 726,643 L 723,649 L 723,652 L 720,658 L 719,663 L 708,685 L 708,687 L 705,691 L 699,703 L 696,706 L 695,709 L 692,712 L 691,715 L 688,718 L 686,722 L 682,726 L 682,727 L 680,728 L 678,732 L 676,733 L 676,734 L 672,738 L 672,739 L 649,762 L 648,762 L 647,764 L 646,764 L 642,768 L 641,768 L 636,773 L 635,773 L 622,784 L 620,784 L 619,786 L 616,787 L 613,790 L 612,790 L 607,794 L 604,795 L 602,797 L 599,798 L 594,802 L 592,802 L 590,804 L 579,809 L 577,811 L 569,815 L 567,815 L 557,820 L 552,821 L 547,824 L 544,824 L 542,826 L 540,826 L 539,827 L 537,827 L 536,828 L 534,828 L 533,829 L 531,829 L 524,832 L 520,832 L 517,834 L 514,834 L 513,835 L 510,835 L 509,836 L 506,836 L 505,837 L 502,837 L 501,838 L 496,838 L 495,839 L 492,839 L 491,840 L 479,841 L 478,842 L 456,842 L 447,837 L 445,837 L 441,834 L 439,834 L 437,832 L 434,832 L 422,826 L 420,826 L 419,825 L 417,825 L 416,824 L 414,824 L 413,823 L 411,823 L 410,822 L 408,822 L 401,819 L 398,819 L 391,816 L 388,816 L 387,815 L 384,815 L 383,814 L 380,814 L 379,813 L 376,813 L 375,812 L 372,812 L 371,811 L 368,811 L 367,810 L 363,810 L 359,808 L 347,807 L 346,806 L 341,806 L 340,805 L 336,805 L 335,804 L 313,803 L 312,802 L 292,802 L 291,801 L 283,801 L 280,798 L 280,797 L 281,796 L 282,792 L 289,786 L 291,786 L 292,785 L 296,785 L 297,784 L 301,784 L 302,783 L 311,783 L 312,782 L 321,782 L 322,781 L 338,781 L 339,780 L 363,780 L 364,779 L 391,779 L 392,780 L 409,780 L 412,783 L 414,783 L 421,786 L 443,787 L 444,786 L 464,785 L 465,784 L 479,783 L 480,782 L 485,782 L 486,781 L 492,781 L 493,780 L 498,780 L 499,779 L 511,778 L 512,776 L 511,774 L 505,774 L 504,775 L 500,775 L 499,776 L 493,776 L 492,777 L 480,778 L 479,779 L 472,779 L 471,780 L 464,780 L 463,781 L 456,781 L 455,782 L 444,782 L 443,783 L 440,782 L 439,783 L 432,783 L 431,782 L 421,782 L 414,779 L 411,775 L 411,772 L 413,769 L 417,767 L 422,767 L 423,766 L 426,766 L 427,765 L 432,765 L 433,764 L 439,764 L 440,763 L 448,762 L 449,761 L 452,761 L 453,760 L 458,759 L 461,757 L 463,757 L 470,752 L 474,751 L 477,748 L 479,748 L 481,746 L 487,743 L 489,743 L 491,741 L 493,741 L 496,739 L 498,739 L 499,738 L 501,738 L 508,735 L 511,735 L 515,733 L 519,733 L 520,732 L 523,732 L 524,731 L 528,731 L 529,730 L 551,730 L 552,731 L 555,731 L 556,732 L 558,732 L 565,735 L 568,735 L 570,737 L 578,739 L 580,741 L 582,741 L 584,743 L 589,744 L 591,746 L 593,746 L 596,748 L 600,748 L 599,744 L 597,744 L 591,741 L 589,739 L 589,738 L 599,728 L 599,727 L 607,718 L 607,717 L 615,706 L 618,699 L 620,697 L 621,693 L 623,690 L 623,688 L 625,685 L 626,680 L 628,678 L 628,676 L 629,675 L 629,672 L 632,665 L 632,659 L 629,659 L 628,661 L 628,664 L 627,665 L 627,667 L 624,674 L 624,677 L 622,680 L 620,687 L 618,691 L 616,693 L 616,695 L 614,699 L 612,701 L 612,703 L 608,708 L 607,711 L 605,712 L 604,715 L 601,718 L 601,719 L 596,724 L 596,725 L 593,728 L 592,728 L 592,729 L 587,734 L 586,734 L 585,736 L 582,737 L 581,736 L 576,735 L 573,733 L 568,732 L 565,730 L 563,730 L 556,727 L 552,727 L 551,726 L 531,726 L 530,727 L 525,727 L 524,728 L 518,728 L 517,729 L 515,729 L 508,732 L 501,733 L 498,735 L 496,735 L 490,738 L 488,738 L 480,742 L 478,744 L 476,744 L 474,746 L 472,746 L 466,751 L 464,751 L 455,756 L 447,757 L 443,755 L 441,753 L 438,752 L 436,750 L 427,746 L 425,744 L 391,727 L 389,727 L 386,725 L 381,724 L 373,720 L 370,720 L 369,719 L 366,719 L 365,718 L 362,718 L 361,717 L 358,717 L 357,716 L 353,716 L 352,715 L 349,715 L 348,714 L 329,713 L 328,714 L 325,714 L 323,715 L 321,717 L 320,717 L 319,719 L 316,719 L 315,718 L 312,718 L 311,717 L 304,717 L 303,716 L 288,716 L 282,721 L 282,723 L 281,724 L 278,723 L 276,721 L 276,720 L 267,711 L 267,710 L 263,706 L 263,705 L 259,701 L 259,700 L 255,696 L 250,688 L 247,685 L 247,684 L 243,679 L 242,676 L 240,674 L 239,671 L 235,666 L 217,630 L 217,632 L 218,633 L 219,643 L 220,644 L 220,646 L 221,647 L 221,649 L 224,656 L 224,659 L 226,662 L 227,667 L 230,672 L 232,679 L 234,681 L 234,683 L 238,691 L 240,693 L 240,695 L 242,697 L 247,707 L 250,710 L 251,713 L 253,715 L 255,719 L 259,723 L 261,727 L 266,732 L 266,733 L 271,739 L 271,740 L 266,744 L 264,751 L 269,756 L 275,759 L 283,761 L 286,763 L 289,763 L 290,764 L 295,765 L 298,767 L 301,767 L 309,771 L 317,773 L 321,776 L 319,778 L 310,778 L 309,779 L 296,780 L 295,781 L 288,782 L 284,784 L 278,791 L 277,793 L 277,796 L 276,797 L 277,801 L 280,805 L 298,805 L 299,806 L 308,806 L 309,807 L 324,807 L 325,808 L 332,808 L 333,809 L 340,809 L 341,810 L 346,810 L 347,811 L 351,811 L 352,812 L 357,812 L 358,813 L 362,813 L 363,814 L 366,814 L 367,815 L 372,815 L 376,817 L 387,819 L 388,820 L 390,820 L 397,823 L 400,823 L 401,824 L 407,825 L 410,827 L 412,827 L 413,828 L 418,829 L 421,831 L 424,831 L 429,834 L 434,835 L 436,837 L 440,839 L 442,839 L 452,845 L 455,845 L 456,846 L 473,846 L 474,845 L 483,845 L 484,844 L 495,843 L 496,842 L 500,842 L 501,841 L 504,841 L 505,840 L 508,840 L 509,839 L 513,839 L 517,837 L 520,837 L 524,835 L 527,835 L 528,834 L 539,831 L 542,829 L 544,829 L 550,826 L 552,826 L 557,823 L 560,823 L 573,816 L 575,816 L 587,810 L 589,808 L 593,807 L 598,803 L 603,801 L 608,797 L 611,796 L 616,792 L 619,791 L 622,788 L 630,783 L 634,779 L 635,779 L 644,771 L 645,771 L 649,767 L 650,767 L 650,766 L 652,764 L 653,764 L 662,755 L 663,755 L 663,754 L 666,751 L 667,751 L 667,750 L 685,730 L 687,726 L 691,722 L 691,721 L 698,712 L 699,709 L 706,699 L 709,692 L 711,690 L 713,686 L 713,684 L 720,671 L 720,669 L 724,661 L 726,653 L 728,650 L 728,648 L 730,644 L 731,637 L 732,636 L 733,630 L 734,629 L 734,626 L 735,625 L 735,620 L 736,619 L 736,616 L 737,615 L 737,611 L 738,610 L 739,596 L 740,595 L 740,587 L 741,586 Z M 269,748 L 273,744 L 275,743 L 278,743 L 282,741 L 303,741 L 304,742 L 307,742 L 308,743 L 313,743 L 314,744 L 317,744 L 321,746 L 332,748 L 333,749 L 335,749 L 339,751 L 342,751 L 343,752 L 345,752 L 352,755 L 355,755 L 356,756 L 358,756 L 359,757 L 361,757 L 368,760 L 371,760 L 372,761 L 377,762 L 380,764 L 383,764 L 388,767 L 391,767 L 392,768 L 395,768 L 398,770 L 401,770 L 405,772 L 407,774 L 405,776 L 389,776 L 388,775 L 370,775 L 369,776 L 334,776 L 327,772 L 325,772 L 317,768 L 314,768 L 311,766 L 309,766 L 305,764 L 302,764 L 299,762 L 297,762 L 296,761 L 294,761 L 287,758 L 284,758 L 281,756 L 274,754 L 269,751 Z M 286,723 L 288,720 L 292,720 L 293,719 L 295,720 L 296,719 L 297,720 L 304,720 L 305,721 L 309,721 L 310,722 L 319,723 L 320,724 L 326,725 L 330,727 L 337,728 L 338,729 L 349,732 L 352,734 L 357,735 L 360,737 L 362,737 L 365,739 L 367,739 L 370,741 L 377,743 L 388,749 L 390,749 L 392,751 L 394,751 L 398,753 L 400,755 L 407,757 L 409,759 L 412,760 L 414,762 L 414,764 L 409,768 L 405,768 L 399,765 L 396,765 L 395,764 L 381,760 L 375,757 L 368,756 L 360,752 L 356,752 L 353,750 L 350,750 L 343,747 L 340,747 L 339,746 L 337,746 L 333,744 L 330,744 L 329,743 L 326,743 L 322,741 L 304,738 L 298,735 L 295,732 L 291,730 L 287,726 Z M 325,720 L 329,717 L 341,717 L 342,718 L 347,718 L 348,719 L 351,719 L 352,720 L 356,720 L 357,721 L 365,722 L 366,723 L 368,723 L 369,724 L 383,728 L 392,733 L 399,735 L 401,737 L 405,739 L 407,739 L 409,741 L 418,745 L 420,747 L 425,749 L 427,751 L 431,752 L 433,754 L 436,755 L 439,758 L 437,760 L 432,760 L 431,761 L 426,761 L 424,762 L 408,754 L 406,752 L 404,752 L 397,748 L 395,748 L 393,746 L 389,744 L 387,744 L 382,741 L 380,741 L 375,738 L 373,738 L 371,736 L 369,736 L 363,733 L 361,733 L 358,731 L 353,730 L 351,728 L 348,728 L 347,727 L 345,727 L 344,726 L 342,726 L 335,723 L 331,723 Z M 667,330 L 665,329 L 656,329 L 655,328 L 635,328 L 634,327 L 612,326 L 611,325 L 606,325 L 605,324 L 594,323 L 593,322 L 589,322 L 588,321 L 579,320 L 575,318 L 571,318 L 570,317 L 567,317 L 566,316 L 562,316 L 559,314 L 552,313 L 551,312 L 546,311 L 543,309 L 536,308 L 533,306 L 531,306 L 530,305 L 525,304 L 522,302 L 517,301 L 514,299 L 512,299 L 508,296 L 506,296 L 496,291 L 495,289 L 492,289 L 491,288 L 470,288 L 469,289 L 462,289 L 461,290 L 449,291 L 448,292 L 445,292 L 444,293 L 440,293 L 439,294 L 428,296 L 427,297 L 425,297 L 424,298 L 422,298 L 421,299 L 419,299 L 418,300 L 416,300 L 415,301 L 413,301 L 406,304 L 403,304 L 400,306 L 393,308 L 388,311 L 381,313 L 370,319 L 368,319 L 364,321 L 362,323 L 360,323 L 358,325 L 347,330 L 345,332 L 342,333 L 339,336 L 337,336 L 334,339 L 331,340 L 329,342 L 325,344 L 322,347 L 321,347 L 311,355 L 310,355 L 295,368 L 294,368 L 294,369 L 290,373 L 289,373 L 275,387 L 274,389 L 272,390 L 272,391 L 266,397 L 264,401 L 258,407 L 256,411 L 246,424 L 245,427 L 241,432 L 236,443 L 232,448 L 232,450 L 225,464 L 224,469 L 221,474 L 218,485 L 216,488 L 215,495 L 213,499 L 213,503 L 212,504 L 211,510 L 210,511 L 210,516 L 209,517 L 209,520 L 208,521 L 208,526 L 207,527 L 207,534 L 206,535 L 206,541 L 205,542 L 205,562 L 204,563 L 204,567 L 205,568 L 205,570 L 206,571 L 208,570 L 208,552 L 209,551 L 209,541 L 210,540 L 210,533 L 211,532 L 211,526 L 212,525 L 212,520 L 213,519 L 213,516 L 214,515 L 214,512 L 215,511 L 215,507 L 217,503 L 217,499 L 220,492 L 220,489 L 223,483 L 223,480 L 225,477 L 225,475 L 229,467 L 229,465 L 231,463 L 232,458 L 237,448 L 239,446 L 239,444 L 243,439 L 243,437 L 247,432 L 247,430 L 249,428 L 255,418 L 258,415 L 261,410 L 263,409 L 264,406 L 268,402 L 268,401 L 270,399 L 271,399 L 274,394 L 276,393 L 276,392 L 293,375 L 294,375 L 302,367 L 303,367 L 304,365 L 305,365 L 310,360 L 313,359 L 318,354 L 322,352 L 332,344 L 335,343 L 346,335 L 348,335 L 350,333 L 355,331 L 357,329 L 359,329 L 361,327 L 366,325 L 368,323 L 370,323 L 377,319 L 379,319 L 381,317 L 383,317 L 390,313 L 392,313 L 400,309 L 403,309 L 406,307 L 408,307 L 409,306 L 411,306 L 418,303 L 421,303 L 424,301 L 427,301 L 428,300 L 431,300 L 432,299 L 435,299 L 436,298 L 439,298 L 440,297 L 443,297 L 444,296 L 459,294 L 460,293 L 467,293 L 468,292 L 481,292 L 482,291 L 483,292 L 490,292 L 491,293 L 493,293 L 495,295 L 503,299 L 505,299 L 507,301 L 509,301 L 511,303 L 514,303 L 522,307 L 530,309 L 532,311 L 539,312 L 542,314 L 548,315 L 549,316 L 551,316 L 558,319 L 562,319 L 566,321 L 574,322 L 575,323 L 579,323 L 580,324 L 583,324 L 584,325 L 587,325 L 588,326 L 591,326 L 592,327 L 598,327 L 599,328 L 611,329 L 612,330 L 619,330 L 620,331 L 634,331 L 635,332 L 653,332 L 654,333 L 663,333 L 665,335 L 665,338 L 663,342 L 656,348 L 654,348 L 653,349 L 649,349 L 648,350 L 643,350 L 642,351 L 634,351 L 633,352 L 619,352 L 618,353 L 608,353 L 607,354 L 573,354 L 572,355 L 559,355 L 558,354 L 538,354 L 529,349 L 526,349 L 525,348 L 518,348 L 517,347 L 502,347 L 501,348 L 480,349 L 479,350 L 473,350 L 472,351 L 467,351 L 466,352 L 458,352 L 457,353 L 454,353 L 453,354 L 446,354 L 445,355 L 435,356 L 433,358 L 433,359 L 434,360 L 439,360 L 440,359 L 447,359 L 448,358 L 451,358 L 452,357 L 458,357 L 459,356 L 472,355 L 473,354 L 479,354 L 480,353 L 487,353 L 488,352 L 498,352 L 499,351 L 519,351 L 520,352 L 524,352 L 525,353 L 528,353 L 530,354 L 534,358 L 534,363 L 531,366 L 529,366 L 528,367 L 525,367 L 524,368 L 518,368 L 517,369 L 512,369 L 511,370 L 506,370 L 505,371 L 501,371 L 500,372 L 496,372 L 495,373 L 484,376 L 482,378 L 480,378 L 478,380 L 475,381 L 468,386 L 464,387 L 462,389 L 458,391 L 456,391 L 447,396 L 444,396 L 443,397 L 441,397 L 434,400 L 431,400 L 430,401 L 427,401 L 426,402 L 416,403 L 415,404 L 395,404 L 394,403 L 391,403 L 390,402 L 379,399 L 371,395 L 369,395 L 364,392 L 357,390 L 355,388 L 353,388 L 350,386 L 346,386 L 346,389 L 347,389 L 349,391 L 354,392 L 357,395 L 357,396 L 353,400 L 352,400 L 348,405 L 346,406 L 343,411 L 339,415 L 336,421 L 333,424 L 330,430 L 328,432 L 328,434 L 325,438 L 324,442 L 321,447 L 319,455 L 317,458 L 317,460 L 314,467 L 314,471 L 313,472 L 313,474 L 314,475 L 316,475 L 317,474 L 317,472 L 319,468 L 319,464 L 321,461 L 321,459 L 322,458 L 323,453 L 325,450 L 325,448 L 327,446 L 327,444 L 336,427 L 343,418 L 345,414 L 352,407 L 352,406 L 362,397 L 365,397 L 368,399 L 370,399 L 378,403 L 381,403 L 384,405 L 390,406 L 391,407 L 395,407 L 396,408 L 413,408 L 414,407 L 420,407 L 421,406 L 431,405 L 434,403 L 437,403 L 438,402 L 441,402 L 444,400 L 450,399 L 457,395 L 459,395 L 466,391 L 468,391 L 473,387 L 488,379 L 490,379 L 494,377 L 499,377 L 503,380 L 506,381 L 508,383 L 510,383 L 512,385 L 517,387 L 519,389 L 526,392 L 528,394 L 532,395 L 534,397 L 544,402 L 546,402 L 555,407 L 557,407 L 560,409 L 562,409 L 570,413 L 573,413 L 576,415 L 580,415 L 584,417 L 588,417 L 589,418 L 593,418 L 594,419 L 599,419 L 600,420 L 604,420 L 605,421 L 617,421 L 618,420 L 623,419 L 627,415 L 635,416 L 636,417 L 642,417 L 643,418 L 657,418 L 658,417 L 660,417 L 663,414 L 664,410 L 663,409 L 663,407 L 655,399 L 655,398 L 656,397 L 661,397 L 662,396 L 667,396 L 668,395 L 671,395 L 677,392 L 681,387 L 681,382 L 677,378 L 671,375 L 668,375 L 665,373 L 663,373 L 659,371 L 656,371 L 650,368 L 644,367 L 641,365 L 639,365 L 638,364 L 630,362 L 627,360 L 625,360 L 623,358 L 625,356 L 648,354 L 649,353 L 653,353 L 654,352 L 659,351 L 667,344 L 667,342 L 669,338 L 669,334 Z M 506,376 L 512,373 L 519,373 L 520,372 L 521,373 L 524,373 L 526,375 L 530,376 L 534,379 L 538,381 L 540,381 L 542,383 L 546,384 L 559,391 L 564,392 L 568,395 L 570,395 L 573,397 L 575,397 L 578,399 L 580,399 L 583,401 L 585,401 L 593,405 L 595,405 L 596,406 L 598,406 L 599,407 L 601,407 L 602,408 L 604,408 L 611,411 L 615,411 L 616,412 L 618,412 L 620,414 L 620,415 L 619,416 L 616,416 L 615,417 L 599,416 L 598,415 L 594,415 L 593,414 L 584,413 L 583,412 L 581,412 L 580,411 L 578,411 L 571,408 L 568,408 L 565,406 L 558,404 L 551,400 L 549,400 L 543,396 L 541,396 L 539,394 L 522,386 L 520,384 L 518,384 L 516,382 L 513,381 Z M 531,371 L 535,367 L 537,366 L 541,366 L 544,368 L 547,368 L 550,370 L 552,370 L 553,371 L 555,371 L 556,372 L 558,372 L 559,373 L 561,373 L 568,376 L 571,376 L 577,379 L 583,380 L 584,381 L 586,381 L 593,384 L 596,384 L 600,386 L 607,387 L 610,389 L 613,389 L 616,391 L 620,391 L 624,393 L 628,393 L 629,394 L 633,394 L 634,395 L 642,396 L 653,403 L 657,407 L 658,407 L 660,410 L 659,412 L 656,414 L 642,414 L 641,413 L 635,413 L 634,412 L 631,412 L 627,410 L 624,410 L 623,409 L 612,407 L 611,406 L 609,406 L 608,405 L 594,401 L 591,399 L 586,398 L 583,396 L 581,396 L 579,394 L 576,394 L 567,389 L 560,387 L 556,384 L 554,384 L 539,376 L 537,376 L 535,374 L 532,373 Z M 539,359 L 540,358 L 551,358 L 552,359 L 575,359 L 576,358 L 604,358 L 605,357 L 607,357 L 608,358 L 611,358 L 614,360 L 616,360 L 621,363 L 629,365 L 637,369 L 643,370 L 649,373 L 652,373 L 655,375 L 658,375 L 661,377 L 670,379 L 672,381 L 674,381 L 677,384 L 677,385 L 674,389 L 670,391 L 662,392 L 661,393 L 648,393 L 647,392 L 634,391 L 633,390 L 630,390 L 629,389 L 626,389 L 625,388 L 621,388 L 617,386 L 614,386 L 610,384 L 607,384 L 603,382 L 600,382 L 596,380 L 593,380 L 591,378 L 587,378 L 584,376 L 582,376 L 575,373 L 572,373 L 571,372 L 569,372 L 568,371 L 566,371 L 565,370 L 563,370 L 562,369 L 560,369 L 559,368 L 545,364 L 541,362 L 539,360 Z" fill="#FFFFFF" fill-rule="evenodd"/>
</svg>